<svg width="20" height="22" viewBox="0 0 20 22" fill="none" xmlns="http://www.w3.org/2000/svg">
<path fill-rule="evenodd" clip-rule="evenodd" d="M15.5892 8.55243C15.5892 9.59904 15.8659 10.2159 16.4746 10.9268C16.9359 11.4505 17.0834 12.1228 17.0834 12.8522C17.0834 13.5807 16.844 14.2723 16.3645 14.8338C15.7367 15.5069 14.8513 15.9366 13.9477 16.0113C12.6383 16.1229 11.3281 16.2169 10.0004 16.2169C8.67197 16.2169 7.36256 16.1607 6.05315 16.0113C5.14873 15.9366 4.26337 15.5069 3.63641 14.8338C3.15687 14.2723 2.91669 13.5807 2.91669 12.8522C2.91669 12.1228 3.06494 11.4505 3.52543 10.9268C4.15322 10.2159 4.41162 9.59904 4.41162 8.55243V8.19741C4.41162 6.79578 4.76113 5.87926 5.48085 4.98204C6.55091 3.67357 8.26615 2.88882 9.96316 2.88882H10.0377C11.7712 2.88882 13.5419 3.71134 14.5937 5.07605C15.2762 5.95479 15.5892 6.8327 15.5892 8.19741V8.55243ZM7.5614 17.9395C7.5614 17.5199 7.94652 17.3277 8.30266 17.2454C8.71925 17.1573 11.2577 17.1573 11.6743 17.2454C12.0305 17.3277 12.4156 17.5199 12.4156 17.9395C12.3949 18.339 12.1605 18.6932 11.8367 18.9182C11.4168 19.2455 10.924 19.4528 10.4088 19.5275C10.1239 19.5644 9.84397 19.5653 9.569 19.5275C9.05302 19.4528 8.56023 19.2455 8.14115 18.9173C7.81649 18.6932 7.58211 18.339 7.5614 17.9395Z" fill="#808191"/>
<circle cx="15" cy="3" r="3" fill="#F6B319"/>
</svg>
